ply
format ascii 1.0
comment Created by Blender 3.4.1 - www.blender.org
element vertex 284
property float x
property float y
property float z
property float nx
property float ny
property float nz
property float s
property float t
element face 196
property list uchar uint vertex_indices
end_header
0.659881 -0.004775 0.134057 0.000000 0.000000 1.000000 0.000000 0.000000
0.748881 0.677225 0.134057 0.000000 0.000000 1.000000 0.666667 0.000000
0.659881 0.677225 0.134057 0.000000 0.000000 1.000000 0.333333 0.000000
0.748881 -0.004775 0.134057 0.000000 0.000000 1.000000 1.000000 0.000000
0.156881 0.225225 0.134057 0.000000 0.000000 1.000000 0.100000 0.000000
0.368881 0.376225 0.134057 0.000000 0.000000 1.000000 0.800000 0.000000
0.366881 0.453225 0.134057 0.000000 0.000000 1.000000 0.200000 0.000000
0.561881 0.206225 0.134057 0.000000 0.000000 1.000000 0.300000 0.000000
0.247881 0.265225 0.134057 0.000000 0.000000 1.000000 0.900000 0.000000
0.473881 0.265225 0.134057 0.000000 0.000000 1.000000 1.000000 0.000000
0.374881 -0.013775 0.134057 0.000000 0.000000 1.000000 0.000000 0.000000
0.245881 0.206225 0.134057 0.000000 0.000000 1.000000 0.400000 0.000000
0.396881 0.071225 0.134057 0.000000 0.000000 1.000000 0.500000 0.000000
0.553881 0.039225 0.134057 0.000000 0.000000 1.000000 0.700000 0.000000
0.553881 0.125225 0.134057 0.000000 0.000000 1.000000 0.600000 0.000000
-0.054119 0.046225 0.134057 0.000000 0.000000 1.000000 0.333333 0.000000
0.065881 0.046225 0.134057 0.000000 0.000000 1.000000 1.000000 0.000000
0.005881 0.106225 0.134057 0.000000 0.000000 1.000000 0.666667 0.000000
0.005881 -0.013775 0.134057 0.000000 0.000000 1.000000 0.000000 0.000000
-0.251119 0.435225 0.134057 0.000000 0.000000 1.000000 0.272727 0.000000
-0.162119 0.677225 0.134057 0.000000 0.000000 1.000000 0.454545 0.000000
-0.251119 0.677225 0.134057 0.000000 0.000000 1.000000 0.363636 0.000000
-0.162119 -0.004775 0.134057 0.000000 0.000000 1.000000 0.545455 0.000000
-0.569119 0.230225 0.134057 0.000000 0.000000 1.000000 0.090909 0.000000
-0.345119 0.453225 0.134057 0.000000 0.000000 1.000000 0.181818 0.000000
-0.334119 0.373225 0.134057 0.000000 0.000000 1.000000 0.636364 0.000000
-0.251119 0.356225 0.134057 0.000000 0.000000 1.000000 1.000000 0.000000
-0.478119 0.217225 0.134057 0.000000 0.000000 1.000000 0.727273 0.000000
-0.251119 0.070225 0.134057 0.000000 0.000000 1.000000 0.909091 0.000000
-0.351119 -0.004775 0.134057 0.000000 0.000000 1.000000 0.000000 0.000000
-0.341119 0.070225 0.134057 0.000000 0.000000 1.000000 0.818182 0.000000
-1.032119 0.657225 0.134057 0.000000 0.000000 1.000000 1.000000 0.000000
-0.700119 0.508225 0.134057 0.000000 0.000000 1.000000 0.071429 0.000000
-0.901119 0.686225 0.134057 0.000000 0.000000 1.000000 0.000000 0.000000
-1.032119 0.564225 0.134057 0.000000 0.000000 1.000000 0.928571 0.000000
-0.916119 0.593225 0.134057 0.000000 0.000000 1.000000 0.857143 0.000000
-0.798119 0.491225 0.134057 0.000000 0.000000 1.000000 0.785714 0.000000
-0.787119 0.355225 0.134057 0.000000 0.000000 1.000000 0.142857 0.000000
-0.933119 0.392225 0.134057 0.000000 0.000000 1.000000 0.714286 0.000000
-0.933119 0.302225 0.134057 0.000000 0.000000 1.000000 0.642857 0.000000
-0.689119 0.193225 0.134057 0.000000 0.000000 1.000000 0.214286 0.000000
-0.787119 0.188225 0.134057 0.000000 0.000000 1.000000 0.571429 0.000000
-0.904119 -0.013775 0.134057 0.000000 0.000000 1.000000 0.285714 0.000000
-0.897119 0.079225 0.134057 0.000000 0.000000 1.000000 0.500000 0.000000
-1.049119 0.025225 0.134057 0.000000 0.000000 1.000000 0.357143 0.000000
-1.049119 0.131225 0.134057 0.000000 0.000000 1.000000 0.428571 0.000000
0.659881 -0.004775 -0.065943 0.000000 0.000000 -1.000000 0.000000 0.000000
0.659881 0.677225 -0.065943 0.000000 0.000000 -1.000000 0.333333 0.000000
0.748881 0.677225 -0.065943 0.000000 0.000000 -1.000000 0.666667 0.000000
0.748881 -0.004775 -0.065943 0.000000 0.000000 -1.000000 1.000000 0.000000
0.156881 0.225225 -0.065943 0.000000 0.000000 -1.000000 0.100000 0.000000
0.366881 0.453225 -0.065943 0.000000 0.000000 -1.000000 0.200000 0.000000
0.368881 0.376225 -0.065943 0.000000 0.000000 -1.000000 0.800000 0.000000
0.561881 0.206225 -0.065943 0.000000 0.000000 -1.000000 0.300000 0.000000
0.247881 0.265225 -0.065943 0.000000 0.000000 -1.000000 0.900000 0.000000
0.473881 0.265225 -0.065943 0.000000 0.000000 -1.000000 1.000000 0.000000
0.374881 -0.013775 -0.065943 0.000000 0.000000 -1.000000 0.000000 0.000000
0.245881 0.206225 -0.065943 0.000000 0.000000 -1.000000 0.400000 0.000000
0.396881 0.071225 -0.065943 0.000000 0.000000 -1.000000 0.500000 0.000000
0.553881 0.125225 -0.065943 0.000000 0.000000 -1.000000 0.600000 0.000000
0.553881 0.039225 -0.065943 0.000000 0.000000 -1.000000 0.700000 0.000000
-0.054119 0.046225 -0.065943 0.000000 0.000000 -1.000000 0.333333 0.000000
0.005881 0.106225 -0.065943 0.000000 0.000000 -1.000000 0.666667 0.000000
0.065881 0.046225 -0.065943 0.000000 0.000000 -1.000000 1.000000 0.000000
0.005881 -0.013775 -0.065943 0.000000 0.000000 -1.000000 0.000000 0.000000
-0.251119 0.435225 -0.065943 0.000000 0.000000 -1.000000 0.272727 0.000000
-0.251119 0.677225 -0.065943 0.000000 0.000000 -1.000000 0.363636 0.000000
-0.162119 0.677225 -0.065943 0.000000 0.000000 -1.000000 0.454545 0.000000
-0.162119 -0.004775 -0.065943 0.000000 0.000000 -1.000000 0.545455 0.000000
-0.569119 0.230225 -0.065943 0.000000 0.000000 -1.000000 0.090909 0.000000
-0.345119 0.453225 -0.065943 0.000000 0.000000 -1.000000 0.181818 0.000000
-0.334119 0.373225 -0.065943 0.000000 0.000000 -1.000000 0.636364 0.000000
-0.251119 0.356225 -0.065943 0.000000 0.000000 -1.000000 1.000000 0.000000
-0.478119 0.217225 -0.065943 0.000000 0.000000 -1.000000 0.727273 0.000000
-0.251119 0.070225 -0.065943 0.000000 0.000000 -1.000000 0.909091 0.000000
-0.351119 -0.004775 -0.065943 0.000000 0.000000 -1.000000 0.000000 0.000000
-0.341119 0.070225 -0.065943 0.000000 0.000000 -1.000000 0.818182 0.000000
-1.032119 0.657225 -0.065943 0.000000 0.000000 -1.000000 1.000000 0.000000
-0.901119 0.686225 -0.065943 0.000000 0.000000 -1.000000 0.000000 0.000000
-0.700119 0.508225 -0.065943 0.000000 0.000000 -1.000000 0.071429 0.000000
-1.032119 0.564225 -0.065943 0.000000 0.000000 -1.000000 0.928571 0.000000
-0.916119 0.593225 -0.065943 0.000000 0.000000 -1.000000 0.857143 0.000000
-0.798119 0.491225 -0.065943 0.000000 0.000000 -1.000000 0.785714 0.000000
-0.787119 0.355225 -0.065943 0.000000 0.000000 -1.000000 0.142857 0.000000
-0.933119 0.392225 -0.065943 0.000000 0.000000 -1.000000 0.714286 0.000000
-0.933119 0.302225 -0.065943 0.000000 0.000000 -1.000000 0.642857 0.000000
-0.689119 0.193225 -0.065943 0.000000 0.000000 -1.000000 0.214286 0.000000
-0.787119 0.188225 -0.065943 0.000000 0.000000 -1.000000 0.571429 0.000000
-0.904119 -0.013775 -0.065943 0.000000 0.000000 -1.000000 0.285714 0.000000
-0.897119 0.079225 -0.065943 0.000000 0.000000 -1.000000 0.500000 0.000000
-1.049119 0.025225 -0.065943 0.000000 0.000000 -1.000000 0.357143 0.000000
-1.049119 0.131225 -0.065943 0.000000 0.000000 -1.000000 0.428571 0.000000
-0.901119 0.686225 0.134057 0.250758 0.968050 0.000000 0.000000 1.000000
-0.700119 0.508225 0.134057 0.986502 0.163748 0.000000 0.066667 1.000000
-0.700119 0.508225 -0.065943 0.986502 0.163748 0.000000 0.066667 0.000000
-0.901119 0.686225 -0.065943 0.250758 0.968050 0.000000 0.000000 0.000000
-0.787119 0.355225 0.134057 0.999909 0.013505 0.000000 0.133333 1.000000
-0.787119 0.355225 -0.065943 0.999909 0.013505 0.000000 0.133333 0.000000
-0.689119 0.193225 0.134057 0.991542 -0.129788 0.000000 0.200000 1.000000
-0.689119 0.193225 -0.065943 0.991542 -0.129788 0.000000 0.200000 0.000000
-0.904119 -0.013775 0.134057 0.249194 -0.968454 0.000000 0.266667 1.000000
-0.904119 -0.013775 -0.065943 0.249194 -0.968454 0.000000 0.266667 0.000000
-1.049119 0.025225 0.134057 -0.793642 -0.608385 0.000000 0.333333 1.000000
-1.049119 0.025225 -0.065943 -0.793642 -0.608385 0.000000 0.333333 0.000000
-1.049119 0.131225 0.134057 -0.581512 0.813538 0.000000 0.400000 1.000000
-1.049119 0.131225 -0.065943 -0.581512 0.813538 0.000000 0.400000 0.000000
-0.897119 0.079225 0.134057 -0.223695 0.974659 0.000000 0.466667 1.000000
-0.897119 0.079225 -0.065943 -0.223695 0.974659 0.000000 0.466667 0.000000
-0.787119 0.188225 0.134057 -0.998263 -0.058913 0.000000 0.533333 1.000000
-0.787119 0.188225 -0.065943 -0.998263 -0.058913 0.000000 0.533333 0.000000
-0.933119 0.302225 0.134057 -0.898731 -0.438501 0.000000 0.600000 1.000000
-0.933119 0.302225 -0.065943 -0.898731 -0.438501 0.000000 0.600000 0.000000
-0.933119 0.392225 0.134057 -0.892010 0.452016 0.000000 0.666667 1.000000
-0.933119 0.392225 -0.065943 -0.892010 0.452016 0.000000 0.666667 0.000000
-0.798119 0.491225 0.134057 -0.999199 0.040014 0.000000 0.733333 1.000000
-0.798119 0.491225 -0.065943 -0.999199 0.040014 0.000000 0.733333 0.000000
-0.916119 0.593225 0.134057 -0.231783 -0.972768 0.000000 0.800000 1.000000
-0.916119 0.593225 -0.065943 -0.231783 -0.972768 0.000000 0.800000 0.000000
-1.032119 0.564225 0.134057 -0.615412 -0.788205 0.000000 0.866667 1.000000
-1.032119 0.564225 -0.065943 -0.615412 -0.788205 0.000000 0.866667 0.000000
-1.032119 0.657225 0.134057 -0.779789 0.626043 0.000000 0.933333 1.000000
-1.032119 0.657225 -0.065943 -0.779789 0.626043 0.000000 0.933333 0.000000
-0.901119 0.686225 0.134057 0.250758 0.968050 0.000000 1.000000 1.000000
-0.901119 0.686225 -0.065943 0.250758 0.968050 0.000000 1.000000 0.000000
-0.351119 -0.004775 0.134057 -0.399943 -0.916540 0.000000 0.000000 1.000000
-0.569119 0.230225 0.134057 -0.999803 0.019872 0.000000 0.142857 1.000000
-0.569119 0.230225 -0.065943 -0.999803 0.019872 0.000000 0.142857 0.000000
-0.351119 -0.004775 -0.065943 -0.399943 -0.916540 0.000000 0.000000 0.000000
-0.345119 0.453225 0.134057 -0.292635 0.956224 0.000000 0.285714 1.000000
-0.345119 0.453225 -0.065943 -0.292635 0.956224 0.000000 0.285714 0.000000
-0.251119 0.435225 0.134057 -0.637153 0.770737 0.000000 0.428571 1.000000
-0.251119 0.435225 -0.065943 -0.637153 0.770737 0.000000 0.428571 0.000000
-0.251119 0.677225 0.134057 -0.707107 0.707107 0.000000 0.571429 1.000000
-0.251119 0.677225 -0.065943 -0.707107 0.707107 0.000000 0.571429 0.000000
-0.162119 0.677225 0.134057 0.707107 0.707107 0.000000 0.714286 1.000000
-0.162119 0.677225 -0.065943 0.707107 0.707107 0.000000 0.714286 0.000000
-0.162119 -0.004775 0.134057 0.707107 -0.707107 0.000000 0.857143 1.000000
-0.162119 -0.004775 -0.065943 0.707107 -0.707107 0.000000 0.857143 0.000000
-0.351119 -0.004775 0.134057 -0.399943 -0.916540 0.000000 1.000000 1.000000
-0.351119 -0.004775 -0.065943 -0.399943 -0.916540 0.000000 1.000000 0.000000
-0.334119 0.373225 0.134057 0.306654 -0.951821 0.000000 0.000000 1.000000
-0.478119 0.217225 0.134057 0.999997 0.002391 0.000000 0.200000 1.000000
-0.478119 0.217225 -0.065943 0.999997 0.002391 0.000000 0.200000 0.000000
-0.334119 0.373225 -0.065943 0.306654 -0.951821 0.000000 0.000000 0.000000
-0.341119 0.070225 0.134057 0.398882 0.917002 0.000000 0.400000 1.000000
-0.341119 0.070225 -0.065943 0.398882 0.917002 0.000000 0.400000 0.000000
-0.251119 0.070225 0.134057 -0.707107 0.707107 0.000000 0.600000 1.000000
-0.251119 0.070225 -0.065943 -0.707107 0.707107 0.000000 0.600000 0.000000
-0.251119 0.356225 0.134057 -0.774808 -0.632197 0.000000 0.800000 1.000000
-0.251119 0.356225 -0.065943 -0.774808 -0.632197 0.000000 0.800000 0.000000
-0.334119 0.373225 0.134057 0.306654 -0.951821 0.000000 1.000000 1.000000
-0.334119 0.373225 -0.065943 0.306654 -0.951821 0.000000 1.000000 0.000000
0.005881 -0.013775 0.134057 -0.000001 -1.000000 0.000000 0.000000 1.000000
-0.054119 0.046225 0.134057 -1.000000 -0.000000 0.000000 0.250000 1.000000
-0.054119 0.046225 -0.065943 -1.000000 -0.000000 0.000000 0.250000 0.000000
0.005881 -0.013775 -0.065943 -0.000001 -1.000000 0.000000 0.000000 0.000000
0.005881 0.106225 0.134057 -0.000001 1.000000 0.000000 0.500000 1.000000
0.005881 0.106225 -0.065943 -0.000001 1.000000 0.000000 0.500000 0.000000
0.065881 0.046225 0.134057 1.000000 0.000000 0.000000 0.750000 1.000000
0.065881 0.046225 -0.065943 1.000000 0.000000 0.000000 0.750000 0.000000
0.005881 -0.013775 0.134057 -0.000001 -1.000000 0.000000 1.000000 1.000000
0.005881 -0.013775 -0.065943 -0.000001 -1.000000 0.000000 1.000000 0.000000
0.374881 -0.013775 0.134057 -0.268395 -0.963309 0.000000 0.000000 1.000000
0.156881 0.225225 0.134057 -0.999997 0.002423 0.000000 0.125000 1.000000
0.156881 0.225225 -0.065943 -0.999997 0.002423 0.000000 0.125000 0.000000
0.374881 -0.013775 -0.065943 -0.268395 -0.963309 0.000000 0.000000 0.000000
0.366881 0.453225 0.134057 0.038009 0.999277 0.000000 0.250000 1.000000
0.366881 0.453225 -0.065943 0.038009 0.999277 0.000000 0.250000 0.000000
0.561881 0.206225 0.134057 0.899901 -0.436094 0.000000 0.375000 1.000000
0.561881 0.206225 -0.065943 0.899901 -0.436094 0.000000 0.375000 0.000000
0.245881 0.206225 0.134057 0.934211 -0.356721 0.000000 0.500000 1.000000
0.245881 0.206225 -0.065943 0.934211 -0.356721 0.000000 0.500000 0.000000
0.396881 0.071225 0.134057 0.197806 0.980241 0.000000 0.625000 1.000000
0.396881 0.071225 -0.065943 0.197806 0.980241 0.000000 0.625000 0.000000
0.553881 0.125225 0.134057 0.580841 0.814017 0.000000 0.750000 1.000000
0.553881 0.125225 -0.065943 0.580841 0.814017 0.000000 0.750000 0.000000
0.553881 0.039225 0.134057 0.801220 -0.598370 0.000000 0.875000 1.000000
0.553881 0.039225 -0.065943 0.801220 -0.598370 0.000000 0.875000 0.000000
0.374881 -0.013775 0.134057 -0.268395 -0.963309 0.000000 1.000000 1.000000
0.374881 -0.013775 -0.065943 -0.268395 -0.963309 0.000000 1.000000 0.000000
0.368881 0.376225 0.134057 -0.035416 -0.999373 0.000000 0.000000 1.000000
0.247881 0.265225 0.134057 0.931907 0.362697 0.000000 0.333333 1.000000
0.247881 0.265225 -0.065943 0.931907 0.362697 0.000000 0.333333 0.000000
0.368881 0.376225 -0.065943 -0.035416 -0.999373 0.000000 0.000000 0.000000
0.473881 0.265225 0.134057 -0.918477 0.395474 0.000000 0.666667 1.000000
0.473881 0.265225 -0.065943 -0.918477 0.395474 0.000000 0.666667 0.000000
0.368881 0.376225 0.134057 -0.035416 -0.999373 0.000000 1.000000 1.000000
0.368881 0.376225 -0.065943 -0.035416 -0.999373 0.000000 1.000000 0.000000
0.659881 -0.004775 0.134057 -0.707107 -0.707107 0.000000 0.000000 1.000000
0.659881 0.677225 0.134057 -0.707107 0.707107 0.000000 0.250000 1.000000
0.659881 0.677225 -0.065943 -0.707107 0.707107 0.000000 0.250000 0.000000
0.659881 -0.004775 -0.065943 -0.707107 -0.707107 0.000000 0.000000 0.000000
0.748881 0.677225 0.134057 0.707107 0.707107 0.000000 0.500000 1.000000
0.748881 0.677225 -0.065943 0.707107 0.707107 0.000000 0.500000 0.000000
0.748881 -0.004775 0.134057 0.707107 -0.707107 0.000000 0.750000 1.000000
0.748881 -0.004775 -0.065943 0.707107 -0.707107 0.000000 0.750000 0.000000
0.659881 -0.004775 0.134057 -0.707107 -0.707107 0.000000 1.000000 1.000000
0.659881 -0.004775 -0.065943 -0.707107 -0.707107 0.000000 1.000000 0.000000
0.154150 2.799267 -0.589432 -0.000000 0.797851 -0.602855 0.700000 0.285714
0.154150 2.992364 -0.188464 0.000000 0.976928 -0.213568 0.700000 0.428571
0.727198 2.806169 -0.188464 0.574224 0.790352 -0.213568 0.600000 0.428571
0.613699 2.649951 -0.589432 0.468965 0.645475 -0.602855 0.600000 0.285714
0.154150 2.992364 0.256578 0.000000 0.976928 0.213568 0.700000 0.571429
0.154150 2.799267 0.657547 -0.000000 0.797851 0.602855 0.700000 0.714286
0.613699 2.649951 0.657547 0.468965 0.645475 0.602855 0.600000 0.714286
0.727198 2.806169 0.256578 0.574224 0.790352 0.213568 0.600000 0.571429
0.154150 2.451319 0.935026 0.000000 0.468515 0.883456 0.700000 0.857143
0.154150 2.017436 1.034057 0.000000 -0.000000 1.000000 0.650000 1.000000
0.409180 2.368455 0.935026 0.275386 0.379036 0.883456 0.600000 0.857143
0.154150 2.451319 -0.866911 0.000000 0.468515 -0.883456 0.700000 0.142857
0.409180 2.368455 -0.866911 0.275386 0.379036 -0.883456 0.600000 0.142857
0.154150 2.017436 -0.965943 0.000000 0.000000 -1.000000 0.650000 0.000000
0.154150 2.017436 -0.965943 0.000000 0.000000 -1.000000 0.550000 0.000000
0.566798 2.151513 -0.866911 0.445584 0.144779 -0.883456 0.500000 0.142857
1.081361 2.318705 -0.188464 0.929114 0.301887 -0.213568 0.500000 0.428571
0.897716 2.259035 -0.589432 0.758801 0.246550 -0.602855 0.500000 0.285714
0.897716 2.259035 0.657547 0.758801 0.246550 0.602855 0.500000 0.714286
1.081361 2.318705 0.256578 0.929114 0.301887 0.213568 0.500000 0.571429
0.154150 2.017436 1.034057 0.000000 -0.000000 1.000000 0.550000 1.000000
0.566798 2.151513 0.935026 0.445584 0.144779 0.883456 0.500000 0.857143
1.081361 1.716166 -0.188464 0.929114 -0.301887 -0.213568 0.400000 0.428571
0.897716 1.775837 -0.589432 0.758801 -0.246549 -0.602855 0.400000 0.285714
0.897716 1.775837 0.657547 0.758801 -0.246549 0.602855 0.400000 0.714286
1.081361 1.716166 0.256578 0.929114 -0.301887 0.213568 0.400000 0.571429
0.154150 2.017436 1.034057 0.000000 -0.000000 1.000000 0.450000 1.000000
0.566798 1.883358 0.935026 0.445584 -0.144779 0.883456 0.400000 0.857143
0.566798 1.883358 -0.866911 0.445584 -0.144779 -0.883456 0.400000 0.142857
0.154150 2.017436 -0.965943 0.000000 0.000000 -1.000000 0.450000 0.000000
0.154150 2.017436 1.034057 0.000000 -0.000000 1.000000 0.350000 1.000000
0.409180 1.666417 0.935026 0.275386 -0.379036 0.883456 0.300000 0.857143
0.613699 1.384921 -0.589432 0.468965 -0.645475 -0.602855 0.300000 0.285714
0.409180 1.666417 -0.866911 0.275386 -0.379036 -0.883456 0.300000 0.142857
0.727198 1.228703 0.256578 0.574224 -0.790352 0.213568 0.300000 0.571429
0.727198 1.228703 -0.188464 0.574224 -0.790352 -0.213568 0.300000 0.428571
0.613699 1.384921 0.657547 0.468965 -0.645475 0.602855 0.300000 0.714286
0.154150 2.017436 -0.965943 0.000000 0.000000 -1.000000 0.350000 0.000000
0.154150 1.235604 -0.589432 0.000000 -0.797851 -0.602855 0.200000 0.285714
0.154150 1.583552 -0.866911 0.000000 -0.468515 -0.883456 0.200000 0.142857
0.154150 1.042508 0.256578 -0.000000 -0.976928 0.213568 0.200000 0.571429
0.154150 1.042508 -0.188464 -0.000000 -0.976928 -0.213568 0.200000 0.428571
0.154150 1.583552 0.935026 0.000000 -0.468515 0.883456 0.200000 0.857143
0.154150 1.235604 0.657547 0.000000 -0.797851 0.602855 0.200000 0.714286
0.154150 2.017436 -0.965943 0.000000 0.000000 -1.000000 0.250000 0.000000
0.154150 2.017436 1.034057 0.000000 -0.000000 1.000000 0.250000 1.000000
-0.418898 1.228703 0.256578 -0.574224 -0.790352 0.213568 0.100000 0.571429
-0.418898 1.228703 -0.188464 -0.574224 -0.790352 -0.213568 0.100000 0.428571
-0.100881 1.666416 0.935026 -0.275386 -0.379036 0.883456 0.100000 0.857143
-0.305399 1.384921 0.657547 -0.468965 -0.645475 0.602855 0.100000 0.714286
0.154150 2.017436 -0.965943 0.000000 0.000000 -1.000000 0.150000 0.000000
-0.100881 1.666416 -0.866911 -0.275386 -0.379036 -0.883456 0.100000 0.142857
-0.305399 1.384921 -0.589432 -0.468965 -0.645475 -0.602855 0.100000 0.285714
0.154150 2.017436 1.034057 0.000000 -0.000000 1.000000 0.150000 1.000000
0.154150 2.017436 -0.965943 0.000000 0.000000 -1.000000 0.050000 0.000000
-0.258498 1.883358 -0.866911 -0.445584 -0.144779 -0.883456 0.000000 0.142857
-0.773062 1.716166 -0.188464 -0.929114 -0.301887 -0.213568 0.000000 0.428571
-0.589416 1.775836 -0.589432 -0.758801 -0.246550 -0.602855 0.000000 0.285714
-0.589416 1.775836 0.657547 -0.758801 -0.246550 0.602855 0.000000 0.714286
-0.773062 1.716166 0.256578 -0.929114 -0.301887 0.213568 0.000000 0.571429
0.154150 2.017436 1.034057 0.000000 -0.000000 1.000000 0.050000 1.000000
-0.258498 1.883358 0.935026 -0.445584 -0.144779 0.883456 0.000000 0.857143
0.154150 2.017436 -0.965943 0.000000 0.000000 -1.000000 0.950000 0.000000
-0.258498 1.883358 -0.866911 -0.445584 -0.144779 -0.883456 1.000000 0.142857
-0.258498 2.151513 -0.866911 -0.445584 0.144779 -0.883456 0.900000 0.142857
-0.589416 1.775836 -0.589432 -0.758801 -0.246550 -0.602855 1.000000 0.285714
-0.773062 1.716166 -0.188464 -0.929114 -0.301887 -0.213568 1.000000 0.428571
-0.773062 2.318705 -0.188464 -0.929114 0.301887 -0.213568 0.900000 0.428571
-0.589416 2.259035 -0.589432 -0.758801 0.246549 -0.602855 0.900000 0.285714
-0.773062 1.716166 0.256578 -0.929114 -0.301887 0.213568 1.000000 0.571429
-0.589416 1.775836 0.657547 -0.758801 -0.246550 0.602855 1.000000 0.714286
-0.589416 2.259035 0.657547 -0.758801 0.246549 0.602855 0.900000 0.714286
-0.773062 2.318705 0.256578 -0.929114 0.301887 0.213568 0.900000 0.571429
-0.258498 1.883358 0.935026 -0.445584 -0.144779 0.883456 1.000000 0.857143
0.154150 2.017436 1.034057 0.000000 -0.000000 1.000000 0.950000 1.000000
-0.258498 2.151513 0.935026 -0.445584 0.144779 0.883456 0.900000 0.857143
-0.305399 2.649951 0.657547 -0.468965 0.645475 0.602855 0.800000 0.714286
-0.418898 2.806169 0.256578 -0.574224 0.790352 0.213568 0.800000 0.571429
0.154150 2.017436 1.034057 0.000000 -0.000000 1.000000 0.850000 1.000000
-0.100881 2.368455 0.935026 -0.275386 0.379036 0.883456 0.800000 0.857143
-0.305399 2.649951 -0.589432 -0.468965 0.645475 -0.602855 0.800000 0.285714
-0.100881 2.368455 -0.866911 -0.275386 0.379036 -0.883456 0.800000 0.142857
-0.418898 2.806169 -0.188464 -0.574224 0.790352 -0.213568 0.800000 0.428571
0.154150 2.017436 -0.965943 0.000000 0.000000 -1.000000 0.850000 0.000000
0.154150 2.017436 -0.965943 0.000000 0.000000 -1.000000 0.750000 0.000000
0.154150 2.017436 1.034057 0.000000 -0.000000 1.000000 0.750000 1.000000
3 0 1 2
3 0 3 1
3 4 5 6
3 5 7 6
3 4 8 5
3 9 7 5
3 4 9 8
3 4 7 9
3 10 11 4
3 11 7 4
3 10 12 11
3 12 13 14
3 10 13 12
3 15 16 17
3 18 16 15
3 19 20 21
3 19 22 20
3 23 19 24
3 23 25 19
3 25 26 19
3 26 22 19
3 23 27 25
3 28 22 26
3 29 27 23
3 29 30 27
3 29 28 30
3 29 22 28
3 31 32 33
3 34 35 31
3 35 32 31
3 36 32 35
3 36 37 32
3 38 37 36
3 39 37 38
3 39 40 37
3 41 40 39
3 41 42 40
3 43 42 41
3 44 43 45
3 44 42 43
3 46 47 48
3 46 48 49
3 50 51 52
3 52 51 53
3 50 52 54
3 55 52 53
3 50 54 55
3 50 55 53
3 56 50 57
3 57 50 53
3 56 57 58
3 58 59 60
3 56 58 60
3 61 62 63
3 64 61 63
3 65 66 67
3 65 67 68
3 69 70 65
3 69 65 71
3 71 65 72
3 72 65 68
3 69 71 73
3 74 72 68
3 75 69 73
3 75 73 76
3 75 76 74
3 75 74 68
3 77 78 79
3 80 77 81
3 81 77 79
3 82 81 79
3 82 79 83
3 84 82 83
3 85 84 83
3 85 83 86
3 87 85 86
3 87 86 88
3 89 87 88
3 90 91 89
3 90 89 88
4 92 93 94 95
4 93 96 97 94
4 96 98 99 97
4 98 100 101 99
4 100 102 103 101
4 102 104 105 103
4 104 106 107 105
4 106 108 109 107
4 108 110 111 109
4 110 112 113 111
4 112 114 115 113
4 114 116 117 115
4 116 118 119 117
4 118 120 121 119
4 120 122 123 121
4 124 125 126 127
4 125 128 129 126
4 128 130 131 129
4 130 132 133 131
4 132 134 135 133
4 134 136 137 135
4 136 138 139 137
4 140 141 142 143
4 141 144 145 142
4 144 146 147 145
4 146 148 149 147
4 148 150 151 149
4 152 153 154 155
4 153 156 157 154
4 156 158 159 157
4 158 160 161 159
4 162 163 164 165
4 163 166 167 164
4 166 168 169 167
4 168 170 171 169
4 170 172 173 171
4 172 174 175 173
4 174 176 177 175
4 176 178 179 177
4 180 181 182 183
4 181 184 185 182
4 184 186 187 185
4 188 189 190 191
4 189 192 193 190
4 192 194 195 193
4 194 196 197 195
4 198 199 200 201
4 202 203 204 205
3 206 207 208
4 209 198 201 210
4 199 202 205 200
4 203 206 208 204
3 211 209 210
3 212 210 213
4 201 200 214 215
4 205 204 216 217
3 208 218 219
4 210 201 215 213
4 200 205 217 214
4 204 208 219 216
4 215 214 220 221
4 217 216 222 223
3 219 224 225
4 213 215 221 226
4 214 217 223 220
4 216 219 225 222
3 227 213 226
3 225 228 229
4 226 221 230 231
4 220 223 232 233
4 222 225 229 234
3 235 226 231
4 221 220 233 230
4 223 222 234 232
4 231 230 236 237
4 233 232 238 239
4 234 229 240 241
3 242 231 237
4 230 233 239 236
4 232 234 241 238
3 229 243 240
4 239 238 244 245
4 241 240 246 247
3 248 237 249
4 236 239 245 250
4 238 241 247 244
3 240 251 246
4 237 236 250 249
3 252 249 253
4 250 245 254 255
4 244 247 256 257
3 246 258 259
4 249 250 255 253
4 245 244 257 254
4 247 246 259 256
3 260 261 262
4 263 264 265 266
4 267 268 269 270
3 271 272 273
4 261 263 266 262
4 264 267 270 265
4 268 271 273 269
4 270 269 274 275
3 273 276 277
4 262 266 278 279
4 265 270 275 280
4 269 273 277 274
3 281 262 279
4 266 265 280 278
4 279 278 198 209
4 280 275 202 199
4 274 277 206 203
3 282 279 209
4 278 280 199 198
4 275 274 203 202
3 277 283 206
